<svg width="120" height="134" viewBox="0 0 120 134" fill="none" xmlns="http://www.w3.org/2000/svg">
<path d="M93.4014 22.3395H17.6826C15.0101 22.3395 13.2285 20.5528 13.2285 17.8729C13.2285 15.1929 15.0101 13.4062 17.6826 13.4062H93.4014C96.0738 13.4062 97.8554 15.1929 97.8554 17.8729C97.8554 20.5528 96.0738 22.3395 93.4014 22.3395Z" fill="white"/>
<path d="M40.0909 98.2143C40.0909 73.6607 60.1364 53.5714 84.6364 53.5714C89.0909 53.5714 93.9909 54.4643 98 55.8036V31.25C98 28.5714 96.2182 26.7857 93.5455 26.7857H26.7273H17.8182C12.9182 26.7857 8.90909 22.7679 8.90909 17.8571C8.90909 12.9464 12.9182 8.92857 17.8182 8.92857H93.5455C96.2182 8.92857 98 7.14286 98 4.46429C98 1.78571 96.2182 0 93.5455 0H17.8182C8.01818 0 0 8.03571 0 17.8571V107.143C0 116.964 8.01818 125 17.8182 125H26.7273H49C43.6545 117.411 40.0909 108.482 40.0909 98.2143Z" fill="white"/>
<path d="M84.5 63C64.975 63 49 78.975 49 98.5C49 118.025 64.975 134 84.5 134C104.025 134 120 118.025 120 98.5C120 78.975 104.025 63 84.5 63ZM97.8125 102.938H88.9375V111.812C88.9375 114.475 87.1625 116.25 84.5 116.25C81.8375 116.25 80.0625 114.475 80.0625 111.812V102.938H71.1875C68.525 102.938 66.75 101.162 66.75 98.5C66.75 95.8375 68.525 94.0625 71.1875 94.0625H80.0625V85.1875C80.0625 82.525 81.8375 80.75 84.5 80.75C87.1625 80.75 88.9375 82.525 88.9375 85.1875V94.0625H97.8125C100.475 94.0625 102.25 95.8375 102.25 98.5C102.25 101.162 100.475 102.938 97.8125 102.938Z" fill="white"/>
</svg>
