<svg width="97" height="43" viewBox="0 0 97 43" fill="none" xmlns="http://www.w3.org/2000/svg">
<path d="M22.2786 22.8815C22.0346 22.405 22.2499 21.8243 22.7283 21.6258C24.6467 20.8168 26.1536 19.6256 27.2443 18.0472C28.5025 16.2256 28.6556 14.141 28.6556 11.7933C28.6556 9.60945 28.1676 7.64891 27.1965 5.91173C26.2253 4.17455 24.7663 2.79969 22.8192 1.79212C20.8722 0.784555 18.528 0.27829 15.7869 0.27829H1.306C0.583636 0.27829 0 0.883822 0 1.63329V34.064C0 34.8135 0.583636 35.419 1.306 35.419H9.31425C10.0366 35.419 10.6203 34.8135 10.6203 34.064L10.6537 25.6858C10.6585 24.9413 11.6201 24.6981 11.9502 25.3583L16.6623 34.6944C16.892 35.1411 17.3369 35.419 17.82 35.419H26.4598C27.4596 35.419 28.0911 34.2973 27.5935 33.394L22.2786 22.8815Z" fill="black"/>
<path d="M10.5347 0V16.2665L7.05833 13.3996L3.58197 16.2665V0H10.5347Z" fill="#EEEEEE"/>
<path d="M41.3263 29.26C41.3263 29.5667 41.3063 29.86 41.2663 30.14H34.1263C34.1929 31.1133 34.5996 31.6 35.3463 31.6C35.8263 31.6 36.1729 31.38 36.3863 30.94H41.0863C40.9263 31.74 40.5863 32.46 40.0663 33.1C39.5596 33.7267 38.9129 34.2267 38.1263 34.6C37.3529 34.96 36.4996 35.14 35.5663 35.14C34.4463 35.14 33.4463 34.9067 32.5663 34.44C31.6996 33.9733 31.0196 33.3067 30.5263 32.44C30.0463 31.56 29.8063 30.5333 29.8063 29.36C29.8063 28.1867 30.0463 27.1667 30.5263 26.3C31.0196 25.42 31.6996 24.7467 32.5663 24.28C33.4463 23.8133 34.4463 23.58 35.5663 23.58C36.6863 23.58 37.6796 23.8133 38.5463 24.28C39.4263 24.7333 40.1063 25.3867 40.5863 26.24C41.0796 27.0933 41.3263 28.1 41.3263 29.26ZM36.8263 28.2C36.8263 27.8267 36.7063 27.5467 36.4663 27.36C36.2263 27.16 35.9263 27.06 35.5663 27.06C34.7796 27.06 34.3196 27.44 34.1863 28.2H36.8263ZM42.1305 29.36C42.1305 28.1733 42.3305 27.1467 42.7305 26.28C43.1438 25.4 43.7038 24.7333 44.4105 24.28C45.1171 23.8133 45.9105 23.58 46.7905 23.58C47.5238 23.58 48.1571 23.7333 48.6905 24.04C49.2238 24.3333 49.6305 24.74 49.9105 25.26V23.72H54.3305V35H49.9105V33.46C49.6305 33.98 49.2238 34.3933 48.6905 34.7C48.1571 34.9933 47.5238 35.14 46.7905 35.14C45.9105 35.14 45.1171 34.9133 44.4105 34.46C43.7038 33.9933 43.1438 33.3267 42.7305 32.46C42.3305 31.58 42.1305 30.5467 42.1305 29.36ZM49.9105 29.36C49.9105 28.76 49.7571 28.2933 49.4505 27.96C49.1438 27.6267 48.7505 27.46 48.2705 27.46C47.7905 27.46 47.3971 27.6267 47.0905 27.96C46.7838 28.2933 46.6305 28.76 46.6305 29.36C46.6305 29.96 46.7838 30.4267 47.0905 30.76C47.3971 31.0933 47.7905 31.26 48.2705 31.26C48.7505 31.26 49.1438 31.0933 49.4505 30.76C49.7571 30.4267 49.9105 29.96 49.9105 29.36ZM55.7242 29.36C55.7242 28.1733 55.9242 27.1467 56.3242 26.28C56.7376 25.4 57.2976 24.7333 58.0042 24.28C58.7109 23.8133 59.5042 23.58 60.3842 23.58C61.1176 23.58 61.7442 23.7333 62.2642 24.04C62.7976 24.3333 63.2042 24.74 63.4842 25.26V20.2H67.9242V35H63.4842V33.46C63.2042 33.98 62.7976 34.3933 62.2642 34.7C61.7442 34.9933 61.1176 35.14 60.3842 35.14C59.5042 35.14 58.7109 34.9133 58.0042 34.46C57.2976 33.9933 56.7376 33.3267 56.3242 32.46C55.9242 31.58 55.7242 30.5467 55.7242 29.36ZM63.5042 29.36C63.5042 28.76 63.3509 28.2933 63.0442 27.96C62.7376 27.6267 62.3442 27.46 61.8642 27.46C61.3842 27.46 60.9909 27.6267 60.6842 27.96C60.3776 28.2933 60.2242 28.76 60.2242 29.36C60.2242 29.96 60.3776 30.4267 60.6842 30.76C60.9909 31.0933 61.3842 31.26 61.8642 31.26C62.3442 31.26 62.7376 31.0933 63.0442 30.76C63.3509 30.4267 63.5042 29.96 63.5042 29.36ZM72.158 22.82C71.3846 22.82 70.7646 22.6133 70.298 22.2C69.8313 21.7867 69.598 21.2667 69.598 20.64C69.598 20 69.8313 19.4733 70.298 19.06C70.7646 18.6333 71.3846 18.42 72.158 18.42C72.918 18.42 73.5313 18.6333 73.998 19.06C74.4646 19.4733 74.698 20 74.698 20.64C74.698 21.2667 74.4646 21.7867 73.998 22.2C73.5313 22.6133 72.918 22.82 72.158 22.82ZM74.358 23.72V35H69.918V23.72H74.358ZM82.8633 22.92C82.6233 22.8933 82.4566 22.88 82.3633 22.88C82.0299 22.88 81.7766 22.9467 81.6033 23.08C81.4299 23.2 81.3099 23.4133 81.2433 23.72H82.8633V27.42H81.2033V35H76.7633V27.42H75.5633V23.72H76.7633C76.7899 22.2533 77.2499 21.12 78.1433 20.32C79.0499 19.5067 80.3166 19.1 81.9433 19.1C82.1299 19.1 82.4366 19.1133 82.8633 19.14V22.92ZM96.7986 23.72L89.5786 40.4H84.7186L87.5586 34.44L82.8586 23.72H87.7986L89.9186 29.44L91.8986 23.72H96.7986Z" fill="black"/>
</svg>
