<svg width="135" height="149" viewBox="0 0 135 149" fill="none" xmlns="http://www.w3.org/2000/svg">
<path d="M93.5222 22.3344H17.8129C15.1408 22.3344 13.3594 20.548 13.3594 17.8684C13.3594 15.1888 15.1408 13.4023 17.8129 13.4023H93.5222C96.1943 13.4023 97.9757 15.1888 97.9757 17.8684C97.9757 20.548 96.1943 22.3344 93.5222 22.3344Z" fill="white"/>
<path d="M40.0814 98.2531C40.0814 73.6898 60.1221 53.5926 84.6163 53.5926C89.0698 53.5926 93.9687 54.4858 97.9768 55.8256V31.2623C97.9768 28.5827 96.1954 26.7963 93.5233 26.7963H26.721H17.814C12.9151 26.7963 8.90698 22.7769 8.90698 17.8642C8.90698 12.9515 12.9151 8.9321 17.814 8.9321H93.5233C96.1954 8.9321 97.9768 7.14568 97.9768 4.46605C97.9768 1.78642 96.1954 0 93.5233 0H17.814C8.01628 0 0 8.03889 0 17.8642V107.185C0 117.01 8.01628 125.049 17.814 125.049H26.721H48.9884C43.6442 117.457 40.0814 108.525 40.0814 98.2531Z" fill="white"/>
<path d="M109.807 72.9982C95.9512 59.1031 73.2778 59.1031 59.4218 72.9982C45.5657 86.8932 45.5657 109.631 59.4218 123.526C73.2778 137.421 95.9512 137.421 109.807 123.526C123.663 109.631 123.663 86.8932 109.807 72.9982ZM90.9127 110.894L84.6145 104.578L78.3163 110.894C76.4269 112.789 73.9076 112.789 72.0181 110.894C70.1287 108.999 70.1287 106.473 72.0181 104.578L78.3163 98.2619L72.0181 91.946C70.1287 90.0512 70.1287 87.5248 72.0181 85.6301C73.9076 83.7353 76.4269 83.7353 78.3163 85.6301L84.6145 91.946L90.9127 85.6301C92.8021 83.7353 95.3214 83.7353 97.2109 85.6301C99.1003 87.5248 99.1003 90.0512 97.2109 91.946L90.9127 98.2619L97.2109 104.578C99.1003 106.473 99.1003 108.999 97.2109 110.894C95.3214 112.789 92.8021 112.789 90.9127 110.894Z" fill="white"/>
</svg>
