<svg width="35" height="42" viewBox="0 0 35 42" fill="none" xmlns="http://www.w3.org/2000/svg">
<path d="M26.7522 27.0153C26.4592 26.4458 26.7177 25.7517 27.2922 25.5144C29.5957 24.5475 31.4053 23.1237 32.715 21.2373C34.2258 19.0602 34.4096 16.5686 34.4096 13.7627C34.4096 11.1525 33.8237 8.80932 32.6576 6.73305C31.4914 4.65678 29.7393 3.01356 27.4013 1.80932C25.0633 0.605085 22.2485 0 18.9569 0H1.56825C0.700831 0 0 0.723729 0 1.61949V40.3805C0 41.2763 0.700831 42 1.56825 42H11.1846C12.052 42 12.7528 41.2763 12.7528 40.3805L12.793 30.3669C12.7988 29.4771 13.9534 29.1864 14.3498 29.9754L20.0081 41.1339C20.2839 41.6678 20.8181 42 21.3983 42H31.7729C32.9735 42 33.7318 40.6593 33.1344 39.5797L26.7522 27.0153Z" fill="#3631F1"/>
<path d="M12.6501 0V19.4416L8.47565 16.0151L4.30123 19.4416V0H12.6501Z" fill="white"/>
</svg>
