<svg width="68" height="83" viewBox="0 0 68 83" fill="none" xmlns="http://www.w3.org/2000/svg">
<path d="M52.8674 53.3873C52.2885 52.2619 52.7993 50.8902 53.9346 50.4213C58.4868 48.5104 62.0628 45.6969 64.6511 41.9689C67.6367 37.6665 68 32.7428 68 27.1977C68 22.0395 66.8421 17.4089 64.5376 13.3058C62.2331 9.20268 58.7706 5.95537 54.1502 3.57556C49.5299 1.19576 43.9673 0 37.4624 0H3.09917C1.38497 0 0 1.43023 0 3.20042V79.7996C0 81.5698 1.38497 83 3.09917 83H22.1028C23.817 83 25.202 81.5698 25.202 79.7996L25.2815 60.0109C25.2928 58.2524 27.5746 57.678 28.3579 59.2371L39.5399 81.2884C40.0848 82.3435 41.1406 83 42.2871 83H62.7893C65.1619 83 66.6604 80.3506 65.4798 78.2169L52.8674 53.3873Z" fill="white"/>
<path d="M24.9989 0V38.4203L16.7495 31.6488L8.50006 38.4203V0H24.9989Z" fill="#3731F1"/>
</svg>
