<svg width="120" height="134" viewBox="0 0 120 134" fill="none" xmlns="http://www.w3.org/2000/svg">
<path d="M40.0001 98.0537C40.0001 73.5403 60.0001 53.4838 84.4446 53.4838C88.8891 53.4838 93.778 54.3752 97.778 55.7123V31.1989C97.778 28.5247 96.0002 26.7419 93.3336 26.7419H26.6667H17.7778C12.8889 26.7419 8.88891 22.7306 8.88891 17.8279C8.88891 12.9253 12.8889 8.91397 17.7778 8.91397H93.3336C96.0002 8.91397 97.778 7.13118 97.778 4.45699C97.778 1.78279 96.0002 0 93.3336 0H17.7778C8.00002 0 0 8.02258 0 17.8279V106.968C0 116.773 8.00002 124.796 17.7778 124.796H26.6667H48.889C43.5557 117.219 40.0001 108.305 40.0001 98.0537Z" fill="white"/>
<path d="M93.334 22.2851H17.7783C15.1116 22.2851 13.3338 20.5023 13.3338 17.8281C13.3338 15.1539 15.1116 13.3711 17.7783 13.3711H93.334C96.0007 13.3711 97.7784 15.1539 97.7784 17.8281C97.7784 20.5023 96.0007 22.2851 93.334 22.2851Z" fill="white"/>
<path fill-rule="evenodd" clip-rule="evenodd" d="M48.8884 98.0622C48.8884 78.4514 64.8885 62.4062 84.4441 62.4062C104 62.4062 120 78.4514 120 98.0622C120 117.673 104 133.718 84.4441 133.718C64.8885 133.718 48.8884 117.673 48.8884 98.0622ZM60.4062 98.1251C60.4062 84.9655 71.0436 74.301 84.1612 74.301C97.279 74.301 107.916 84.9655 107.916 98.1251C107.916 111.285 97.279 121.949 84.1612 121.949C71.0436 121.949 60.4062 111.285 60.4062 98.1251ZM84.1612 72.8566C70.242 72.8566 58.9617 84.1716 58.9617 98.1251C58.9617 112.079 70.242 123.394 84.1612 123.394C98.0806 123.394 109.361 112.079 109.361 98.1251C109.361 84.1716 98.0806 72.8566 84.1612 72.8566ZM84.8835 84.4883C84.8835 84.0894 84.5601 83.7661 84.1612 83.7661C83.7624 83.7661 83.439 84.0894 83.439 84.4883V98.1251C83.439 98.3855 83.5791 98.6257 83.8058 98.7538C84.0324 98.882 84.3105 98.8782 84.5336 98.744L91.3328 94.6529C91.6746 94.4473 91.785 94.0035 91.5793 93.6617C91.3737 93.3199 90.9299 93.2096 90.5881 93.4152L84.8835 96.8477V84.4883Z" fill="white"/>
</svg>
