<svg width="121" height="135" viewBox="0 0 121 135" fill="none" xmlns="http://www.w3.org/2000/svg">
<path d="M94.1126 22.4767H17.926C15.2371 22.4767 13.4445 20.679 13.4445 17.9825C13.4445 15.286 15.2371 13.4883 17.926 13.4883H94.1126C96.8016 13.4883 98.5942 15.286 98.5942 17.9825C98.5942 20.679 96.8016 22.4767 94.1126 22.4767Z" fill="white"/>
<path d="M85.1474 62.9219C65.4286 62.9219 49.2949 79.101 49.2949 98.8755C49.2949 118.65 65.4286 134.829 85.1474 134.829C104.866 134.829 121 118.65 121 98.8755C121 79.101 104.866 62.9219 85.1474 62.9219ZM98.5921 103.37C81.6213 103.37 85.9444 103.37 71.7027 103.37C69.0138 103.37 67.2212 101.572 67.2212 98.8755C67.2212 96.179 69.0138 94.3813 71.7027 94.3813C89.2651 94.3813 83.883 94.3813 98.5921 94.3813C101.281 94.3813 103.074 96.179 103.074 98.8755C103.074 101.572 101.281 103.37 98.5921 103.37Z" fill="white"/>
<path d="M40.3341 98.8724C40.3341 74.1543 60.5011 53.9304 85.1497 53.9304C89.6313 53.9304 94.561 54.8293 98.5944 56.1775V31.4594C98.5944 28.7629 96.8018 26.9652 94.1129 26.9652H26.8894H17.9263C12.9965 26.9652 8.96313 22.9204 8.96313 17.9768C8.96313 13.0332 12.9965 8.9884 17.9263 8.9884H94.1129C96.8018 8.9884 98.5944 7.19072 98.5944 4.4942C98.5944 1.79768 96.8018 0 94.1129 0H17.9263C8.06682 0 0 8.08956 0 17.9768V107.861C0 117.748 8.06682 125.838 17.9263 125.838H26.8894H49.2972C43.9193 118.198 40.3341 109.209 40.3341 98.8724Z" fill="white"/>
</svg>
